<svg width="276" height="91" viewBox="0 0 276 91" fill="none" xmlns="http://www.w3.org/2000/svg">
<path d="M275.305 78.4032C275.305 85.1223 269.862 90.5649 263.143 90.5649H12.319C5.59995 90.5649 0.157227 85.117 0.157227 78.4032V12.7267C0.157227 6.01293 5.60522 0.564941 12.319 0.564941H263.143C269.857 0.564941 275.305 6.01293 275.305 12.7267V78.4032Z" fill="black"/>
<path d="M71.9093 60.0552C70.4537 63.2828 69.7576 64.7226 67.88 67.5758C65.2642 71.5577 61.5724 76.5205 57.0051 76.5627C52.9442 76.5996 51.9 73.9204 46.3887 73.952C40.8774 73.9837 39.7277 76.6101 35.6667 76.5732C31.0995 76.531 27.6028 72.0534 24.987 68.0663C17.6667 56.9277 16.9073 43.8536 21.4165 36.9078C24.6231 31.9661 29.6808 29.076 34.4379 29.076C39.2794 29.076 42.3277 31.734 46.3307 31.734C50.2176 31.734 52.5856 29.076 58.1812 29.076C62.4162 29.076 66.8991 31.3807 70.0951 35.3678C59.6263 41.1006 61.3298 56.0575 71.9093 60.0552Z" fill="white"/>
<path d="M53.9356 24.6247C55.9713 22.0141 57.5166 18.3224 56.9523 14.5567C53.6297 14.7835 49.7428 16.8984 47.4697 19.6567C45.4076 22.1618 43.7094 25.8694 44.3686 29.4768C48.0024 29.5875 51.7574 27.4199 53.9356 24.6247Z" fill="white"/>
<path d="M94.2024 36.739L83.7178 67.5917H88.5171L91.6445 58.1196H101.792L105.009 67.5917H109.94L99.4131 36.739H94.2024ZM96.6864 41.8126C97.0398 43.1891 97.4248 44.6183 97.9153 46.1636L100.742 54.3435H92.7046L95.4892 46.1109C95.9111 44.7766 96.312 43.3368 96.6864 41.8126Z" fill="white"/>
<path d="M123.515 44.7396C120.335 44.7396 117.787 45.9684 116.095 48.2995L115.91 45.2301H111.638L111.664 45.6203C111.791 47.5348 111.844 49.6391 111.844 52.6558V76.436H116.511V65.3396C117.962 67.0748 120.272 68.0821 122.893 68.0821C125.619 68.0821 128.135 67.0115 129.965 65.0759C132.011 62.9136 133.087 59.8073 133.087 56.0944C133.087 52.814 132.148 49.9766 130.376 47.8934C128.636 45.8576 126.199 44.7396 123.515 44.7396ZM122.349 48.6001C126.511 48.6001 128.372 52.4553 128.372 56.2737C128.372 61.1996 125.994 64.2637 122.17 64.2637C119.56 64.2637 117.302 62.4864 116.669 59.9338C116.559 59.5383 116.506 59.0162 116.506 58.4202V54.6652C116.506 54.3276 116.58 53.911 116.654 53.5154C116.675 53.3888 116.701 53.2623 116.722 53.1357C117.418 50.4671 119.728 48.6001 122.349 48.6001Z" fill="white"/>
<path d="M147.554 44.7396C144.373 44.7396 141.826 45.9684 140.133 48.2995L139.949 45.2301H135.682L135.703 45.6203C135.83 47.5348 135.882 49.6391 135.882 52.6558V76.436H140.55V65.3396C142 67.0748 144.31 68.0821 146.931 68.0821C149.658 68.0821 152.174 67.0115 154.009 65.0759C156.05 62.9136 157.131 59.8073 157.131 56.0944C157.131 52.814 156.192 49.9766 154.415 47.8934C152.675 45.8576 150.238 44.7396 147.554 44.7396ZM146.388 48.6001C150.549 48.6001 152.411 52.4553 152.411 56.2737C152.411 61.1996 150.032 64.2637 146.209 64.2637C143.598 64.2637 141.336 62.4864 140.708 59.9338C140.597 59.5383 140.545 59.0162 140.545 58.4202V54.6652C140.545 54.3224 140.618 53.911 140.692 53.5101C140.713 53.3836 140.74 53.257 140.761 53.1357C141.457 50.4671 143.767 48.6001 146.388 48.6001Z" fill="white"/>
<path d="M177.668 49.8131C173.312 48.1255 171.914 46.8017 171.914 44.3493C171.914 42.2872 173.554 40.204 177.22 40.204C180.242 40.204 182.177 41.2535 182.699 41.5805L183.095 41.8231L184.413 37.9256L184.155 37.7727C183.374 37.3139 181.144 36.2485 177.357 36.2485C171.403 36.2485 167.247 39.761 167.247 44.7923C167.247 48.848 169.852 51.6854 175.442 53.7159C179.403 55.1978 180.88 56.7115 180.88 59.3115C180.88 62.2544 178.607 64.0792 174.947 64.0792C172.563 64.0792 170.11 63.383 168.217 62.17L167.811 61.9116L166.556 65.8987L166.788 66.0516C168.549 67.2277 171.867 68.0821 174.678 68.0821C182.699 68.0821 185.547 63.1879 185.547 59.0004C185.542 54.6863 183.258 52.0176 177.668 49.8131Z" fill="white"/>
<path d="M193.943 39.914L189.366 41.3537V45.2301H186.011V48.9588H189.366V60.3875C189.366 63.151 189.893 65.0865 190.979 66.3101C192.024 67.4545 193.627 68.0821 195.494 68.0821C197.261 68.0821 198.511 67.7341 199.101 67.5231L199.365 67.4282L199.143 63.689L198.695 63.8261C198.105 64.0054 197.498 64.0792 196.522 64.0792C194.713 64.0792 193.943 62.9348 193.943 60.2503V48.9535H199.576V45.2248H193.943V39.914Z" fill="white"/>
<path d="M211.147 44.7396C204.618 44.7396 200.056 49.6127 200.056 56.5902C200.056 63.3567 204.47 68.0874 210.794 68.0874H210.836C216.178 68.0874 221.927 64.364 221.927 56.1893C221.927 52.8668 220.899 50.0135 218.952 47.9303C216.991 45.8418 214.29 44.7396 211.147 44.7396ZM211.01 48.4208C215.208 48.4208 217.122 52.5134 217.122 56.3212C217.122 60.9992 214.512 64.3956 210.92 64.3956H210.873C207.334 64.3956 204.76 61.0572 204.76 56.453C204.766 52.4607 206.696 48.4208 211.01 48.4208Z" fill="white"/>
<path d="M236.219 44.9558L235.94 44.8872C235.529 44.787 235.191 44.7396 234.78 44.7396C232.338 44.7396 230.144 46.1793 228.926 48.4999L228.788 45.2353H224.601L224.627 45.6256C224.754 47.4715 224.801 49.5494 224.801 52.3499L224.759 67.6021H229.427V55.7041C229.427 55.0554 229.469 54.4436 229.553 53.8951C230.081 51.0366 232.006 49.1908 234.463 49.1908C234.943 49.1908 235.318 49.2277 235.718 49.2699L236.219 49.3226V44.9558Z" fill="white"/>
<path d="M246.715 44.6921C240.502 44.6921 236.161 49.6549 236.161 56.7695C236.161 63.6151 240.481 68.0399 247.163 68.0399C250.675 68.0399 253.122 67.2699 254.552 66.6212L254.831 66.4946L253.935 63.0138L253.544 63.1721C252.273 63.6889 250.58 64.2163 247.696 64.2163C245.665 64.2163 240.992 63.5465 240.702 57.4498L255.77 57.4973L255.833 57.1967C255.928 56.722 255.976 56.0839 255.976 55.2506C255.976 50.3827 253.555 44.6921 246.715 44.6921ZM246.403 48.2468C247.827 48.2468 248.977 48.6845 249.831 49.5547C251.176 50.9207 251.408 52.9353 251.44 53.9004H240.792C241.23 51.2002 242.912 48.2468 246.403 48.2468Z" fill="white"/>
<path d="M83.7178 15.6643C85.0205 15.4903 86.5341 15.3637 88.1954 15.3637C91.2068 15.3637 93.348 15.9702 94.7667 17.1621C96.2329 18.354 97.0767 20.0628 97.0767 22.4255C97.0767 24.8094 96.2329 26.7554 94.7404 28.1003C93.2004 29.4662 90.6952 30.2046 87.5414 30.2046C86.0225 30.2046 84.799 30.1624 83.7125 30.0306V15.6643H83.7178ZM85.8379 28.596C86.3653 28.6804 87.1353 28.6804 87.9581 28.6804C92.4356 28.7015 94.8669 26.4284 94.8669 22.4835C94.8933 18.9974 92.7257 16.851 88.2956 16.851C87.2144 16.851 86.3917 16.9406 85.8379 17.0461V28.596Z" fill="white"/>
<path d="M104.587 30.3101C101.454 30.3101 99.0017 28.2322 99.0017 24.9149C99.0017 21.4024 101.575 19.3456 104.777 19.3456C108.126 19.3456 110.388 21.5343 110.388 24.7197C110.388 28.6172 107.377 30.3101 104.613 30.3101H104.587ZM104.661 28.8756C106.681 28.8756 108.199 27.1616 108.199 24.783C108.199 23.0057 107.213 20.7748 104.708 20.7748C102.229 20.7748 101.143 22.8527 101.143 24.8463C101.143 27.1405 102.588 28.8756 104.634 28.8756H104.661Z" fill="white"/>
<path d="M113.742 19.5829L115.309 24.8937C115.62 26.0645 115.936 27.1668 116.153 28.2532H116.226C116.49 27.1932 116.875 26.0645 117.26 24.9148L119.164 19.5829H120.947L122.75 24.8252C123.183 26.0593 123.52 27.1879 123.784 28.248H123.858C124.053 27.1879 124.364 26.0804 124.749 24.8463L126.41 19.5829H128.504L124.749 30.0675H122.824L121.042 25.0625C120.63 23.8706 120.293 22.8316 120.008 21.5975H119.96C119.67 22.8527 119.312 23.9602 118.9 25.0836L117.023 30.0675H115.098L111.58 19.5829H113.742Z" fill="white"/>
<path d="M130.619 22.4203C130.619 21.3128 130.593 20.4478 130.524 19.5829H132.402L132.523 21.2969H132.57C133.151 20.3212 134.495 19.3456 136.42 19.3456C138.034 19.3456 140.539 20.2105 140.539 23.8073V30.0675H138.425V24.0236C138.425 22.3359 137.723 20.9067 135.73 20.9067C134.358 20.9067 133.272 21.7927 132.887 22.858C132.792 23.0953 132.745 23.4434 132.745 23.744V30.0728H130.624V22.4203H130.619Z" fill="white"/>
<path d="M143.983 14.6886H146.103V30.0728H143.983V14.6886Z" fill="white"/>
<path d="M154.357 30.3101C151.23 30.3101 148.772 28.2322 148.772 24.9149C148.772 21.4024 151.346 19.3456 154.552 19.3456C157.896 19.3456 160.158 21.5343 160.158 24.7197C160.158 28.6172 157.147 30.3101 154.378 30.3101H154.357ZM154.431 28.8756C156.451 28.8756 157.97 27.1616 157.97 24.783C157.97 23.0057 156.984 20.7748 154.478 20.7748C152 20.7748 150.913 22.8527 150.913 24.8463C150.913 27.1405 152.358 28.8756 154.405 28.8756H154.431Z" fill="white"/>
<path d="M171.044 27.5571C171.044 28.4642 171.091 29.3555 171.213 30.0675H169.309L169.114 28.749H169.045C168.417 29.5718 167.141 30.3101 165.48 30.3101C163.122 30.3101 161.915 28.8176 161.915 27.2987C161.915 24.7619 164.42 23.3749 168.918 23.4012V23.185C168.918 22.32 168.655 20.7379 166.271 20.759C165.163 20.759 164.03 21.0385 163.212 21.5395L162.732 20.2632C163.697 19.72 165.116 19.3508 166.582 19.3508C170.168 19.3508 171.033 21.5395 171.033 23.6386V27.5571H171.044ZM168.971 24.7197C166.661 24.6775 164.035 25.0467 164.035 27.0824C164.035 28.3376 164.947 28.902 166.007 28.902C167.547 28.902 168.533 28.037 168.871 27.1457C168.945 26.9506 168.966 26.7344 168.966 26.5392V24.7197H168.971Z" fill="white"/>
<path d="M184.498 14.6886V27.3619C184.498 28.2954 184.524 29.3555 184.593 30.0728H182.689L182.594 28.2532H182.546C181.898 29.4241 180.5 30.3101 178.596 30.3101C175.78 30.3101 173.586 28.1636 173.586 24.9781C173.56 21.4656 175.996 19.3455 178.812 19.3455C180.621 19.3455 181.824 20.105 182.33 20.9277H182.378V14.6886H184.498ZM182.383 23.8495C182.383 23.591 182.362 23.2852 182.288 23.0267C181.977 21.8348 180.822 20.8381 179.229 20.8381C177.04 20.8381 175.738 22.5732 175.738 24.8673C175.738 27.0138 176.919 28.7648 179.182 28.7648C180.6 28.7648 181.903 27.8999 182.288 26.4917C182.362 26.2333 182.383 25.9696 182.383 25.669V23.8495Z" fill="white"/>
<path d="M197.862 30.3101C194.735 30.3101 192.277 28.2322 192.277 24.9149C192.277 21.4024 194.856 19.3456 198.057 19.3456C201.406 19.3456 203.669 21.5343 203.669 24.7197C203.669 28.6172 200.657 30.3101 197.894 30.3101H197.862ZM197.936 28.8756C199.956 28.8756 201.475 27.1616 201.475 24.783C201.475 23.0057 200.488 20.7748 197.983 20.7748C195.505 20.7748 194.418 22.8527 194.418 24.8463C194.418 27.1405 195.863 28.8756 197.909 28.8756H197.936Z" fill="white"/>
<path d="M206.337 22.4203C206.337 21.3128 206.311 20.4478 206.242 19.5829H208.12L208.241 21.2969H208.288C208.869 20.3212 210.213 19.3456 212.138 19.3456C213.752 19.3456 216.257 20.2105 216.257 23.8073V30.0675H214.137V24.0236C214.137 22.3359 213.441 20.9067 211.442 20.9067C210.071 20.9067 208.985 21.7927 208.6 22.858C208.505 23.0953 208.457 23.4434 208.457 23.744V30.0728H206.337V22.4203Z" fill="white"/>
<path d="M227.354 17.0724V19.5829H230.386V21.0332H227.354V26.6869C227.354 27.9842 227.765 28.7226 228.941 28.7226C229.516 28.7226 229.854 28.6804 230.17 28.5907L230.265 30.0411C229.854 30.1729 229.205 30.2995 228.388 30.2995C227.401 30.2995 226.605 29.9936 226.099 29.4979C225.519 28.9125 225.281 27.979 225.281 26.7449V21.0226H223.478V19.5723H225.281V17.642L227.354 17.0724Z" fill="white"/>
<path d="M232.776 14.6886H234.896V21.2336H234.943C235.281 20.6904 235.808 20.1946 236.462 19.8887C237.09 19.5406 237.833 19.3455 238.63 19.3455C240.191 19.3455 242.696 20.2105 242.696 23.8284V30.0675H240.576V24.0446C240.576 22.3306 239.88 20.9224 237.881 20.9224C236.509 20.9224 235.449 21.7874 235.038 22.8316C234.917 23.09 234.89 23.3748 234.89 23.744V30.0728H232.77V14.6886H232.776Z" fill="white"/>
<path d="M247.337 25.1522C247.384 27.7311 249.193 28.7912 251.308 28.7912C252.827 28.7912 253.766 28.5538 254.536 28.269L254.921 29.6139C254.172 29.9198 252.875 30.2837 251.018 30.2837C247.453 30.2837 245.285 28.1372 245.285 24.9992C245.285 21.8137 247.379 19.3244 250.776 19.3244C254.578 19.3244 255.564 22.3359 255.564 24.2661C255.564 24.6564 255.543 24.957 255.496 25.1732L247.337 25.1522ZM253.529 23.7862C253.55 22.5943 252.975 20.6851 250.612 20.6851C248.444 20.6851 247.532 22.4624 247.363 23.7862H253.529Z" fill="white"/>
</svg>
