<svg width="21" height="20" viewBox="0 0 21 20" fill="none" xmlns="http://www.w3.org/2000/svg">
<path fill-rule="evenodd" clip-rule="evenodd" d="M10.5181 0.594482C11.0358 0.594482 11.4556 1.01422 11.4556 1.53198V9.34448H19.2681C19.7858 9.34448 20.2056 9.76422 20.2056 10.282C20.2056 10.7997 19.7858 11.2195 19.2681 11.2195H11.4556V19.032C11.4556 19.5497 11.0358 19.9695 10.5181 19.9695C10.0003 19.9695 9.58057 19.5497 9.58057 19.032V11.2195H1.76807C1.2503 11.2195 0.830566 10.7997 0.830566 10.282C0.830566 9.76422 1.2503 9.34448 1.76807 9.34448H9.58057V1.53198C9.58057 1.01422 10.0003 0.594482 10.5181 0.594482Z" fill="white"/>
</svg>
