<svg width="276" height="91" viewBox="0 0 276 91" fill="none" xmlns="http://www.w3.org/2000/svg">
<path d="M275.442 78.2444C275.442 84.9631 269.998 90.4069 263.279 90.4069H12.4671C5.74848 90.4069 0.304688 84.9577 0.304688 78.2444V12.5693C0.304688 5.85064 5.74848 0.40686 12.4671 0.40686H263.279C269.993 0.40686 275.442 5.85602 275.442 12.5693V78.2444Z" fill="black"/>
<path d="M20.9448 17.7388V48.2121V78.6855L51.6764 48.2121L20.9448 17.7388Z" fill="url(#paint0_linear)"/>
<path d="M59.9335 40.0249L47.5236 32.8652L20.9448 17.5128V17.7388L51.6764 48.2121L59.9335 40.0249Z" fill="url(#paint1_linear)"/>
<path d="M20.9448 78.6855V78.9061L47.5236 63.5591L59.9282 56.394L51.6764 48.2121L20.9448 78.6855Z" fill="url(#paint2_linear)"/>
<path d="M59.9335 40.0249L51.6764 48.2121L59.9281 56.3939L74.1078 48.2121L59.9335 40.0249Z" fill="url(#paint3_linear)"/>
<path d="M214.431 60.1217C213.274 60.1217 212.225 59.9066 211.268 59.4816C210.315 59.0567 209.514 58.4004 208.863 57.5182H208.675C208.804 58.551 208.868 59.5354 208.868 60.4606V67.7549H206.184V42.0744H208.368L208.739 44.5004H208.868C209.557 43.5322 210.364 42.8275 211.278 42.3972C212.193 41.9668 213.247 41.7516 214.431 41.7516C216.781 41.7516 218.594 42.5532 219.874 44.1615C221.155 45.7699 221.789 48.0238 221.789 50.9232C221.789 53.8334 221.138 56.0981 219.842 57.7065C218.54 59.3202 216.738 60.1217 214.431 60.1217ZM214.043 44.0324C212.23 44.0324 210.923 44.5327 210.116 45.5386C209.31 46.5392 208.89 48.1368 208.868 50.3261V50.9232C208.868 53.4138 209.283 55.1944 210.116 56.2702C210.945 57.3407 212.279 57.8786 214.108 57.8786C215.641 57.8786 216.84 57.26 217.707 56.0174C218.573 54.7802 219.008 53.0696 219.008 50.891C219.008 48.6801 218.573 46.9856 217.707 45.8022C216.84 44.6242 215.614 44.0324 214.043 44.0324Z" fill="#F9F9F9"/>
<path d="M228.002 59.799H225.318V34.6349H228.002V59.799Z" fill="#F9F9F9"/>
<path d="M243.441 59.799L242.908 57.2762H242.779C241.897 58.3897 241.015 59.1374 240.132 59.5301C239.256 59.9227 238.158 60.1218 236.84 60.1218C235.081 60.1218 233.704 59.6699 232.709 58.7608C231.714 57.8571 231.214 56.5661 231.214 54.8985C231.214 51.3213 234.075 49.444 239.799 49.2719L242.806 49.175V48.0777C242.806 46.6844 242.505 45.657 241.908 44.9954C241.311 44.3337 240.353 44.0002 239.035 44.0002C237.556 44.0002 235.888 44.4521 234.022 45.3612L233.199 43.3063C234.076 42.8329 235.028 42.4617 236.071 42.1928C237.109 41.9238 238.153 41.7893 239.202 41.7893C241.316 41.7893 242.881 42.2573 243.898 43.1987C244.915 44.1347 245.426 45.6409 245.426 47.7119V59.8098H243.441V59.799ZM237.373 57.9109C239.046 57.9109 240.353 57.4537 241.311 56.5392C242.263 55.6247 242.741 54.3391 242.741 52.6877V51.0847L240.057 51.1976C237.922 51.2729 236.383 51.6064 235.442 52.1928C234.5 52.7791 234.027 53.6936 234.027 54.9362C234.027 55.9045 234.318 56.6468 234.909 57.1524C235.496 57.6581 236.319 57.9109 237.373 57.9109Z" fill="#F9F9F9"/>
<path d="M246.986 42.0743H249.864L253.747 52.1819C254.597 54.4896 255.13 56.1572 255.334 57.1792H255.463C255.603 56.6306 255.899 55.6892 256.346 54.3551C256.792 53.0211 258.255 48.9329 260.735 42.0743H263.613L255.996 62.2572C255.243 64.2529 254.361 65.6677 253.349 66.5015C252.343 67.3352 251.106 67.7548 249.638 67.7548C248.82 67.7548 248.008 67.6634 247.212 67.4805V65.3288C247.803 65.4579 248.47 65.5224 249.202 65.5224C251.047 65.5224 252.36 64.4896 253.15 62.4186L254.135 59.8958L246.986 42.0743Z" fill="#F9F9F9"/>
<path d="M164.7 43.7204C165.549 44.4251 167.33 45.9098 167.33 48.7285C167.33 51.4719 165.775 52.7683 164.215 53.9948C163.731 54.4735 163.177 54.9953 163.177 55.8129C163.177 56.6252 163.731 57.0717 164.14 57.4052L165.474 58.4434C167.104 59.8151 168.589 61.0792 168.589 63.6343C168.589 67.1201 165.216 70.6381 158.842 70.6381C153.462 70.6381 150.87 68.083 150.87 65.3342C150.87 64.0001 151.537 62.112 153.726 60.8102C156.023 59.4009 159.137 59.218 160.805 59.105C160.283 58.438 159.691 57.7333 159.691 56.5876C159.691 55.9582 159.88 55.587 160.063 55.1405C159.654 55.1782 159.245 55.2158 158.874 55.2158C154.947 55.2158 152.72 52.2842 152.72 49.3955C152.72 47.6903 153.5 45.7968 155.092 44.4251C157.206 42.6822 159.729 42.3864 161.73 42.3864H169.363L166.991 43.7204H164.7ZM162.069 60.1863C161.773 60.1486 161.585 60.1486 161.219 60.1486C160.886 60.1486 158.879 60.2239 157.325 60.7457C156.507 61.0416 154.135 61.9291 154.135 64.565C154.135 67.1954 156.695 69.0889 160.66 69.0889C164.215 69.0889 166.109 67.3783 166.109 65.0814C166.109 63.1825 164.882 62.1873 162.069 60.1863ZM163.145 53.1395C163.995 52.2842 164.07 51.1007 164.07 50.4337C164.07 47.7656 162.478 43.6128 159.401 43.6128C158.438 43.6128 157.4 44.0916 156.803 44.8393C156.173 45.6193 155.985 46.6198 155.985 47.5827C155.985 50.0679 157.432 54.183 160.622 54.183C161.547 54.1777 162.548 53.7312 163.145 53.1395Z" fill="#F9F9F9"/>
<path d="M141.359 59.5892C135.474 59.5892 132.327 55.0008 132.327 50.8534C132.327 46.0067 136.286 41.8593 141.913 41.8593C147.351 41.8593 150.757 46.1143 150.757 50.5952C150.762 54.9631 147.394 59.5892 141.359 59.5892ZM145.985 56.593C146.873 55.4096 147.099 53.9249 147.099 52.4833C147.099 49.2235 145.544 43.0051 140.956 43.0051C139.734 43.0051 138.513 43.4892 137.626 44.2638C136.184 45.5602 135.921 47.1847 135.921 48.7824C135.921 52.4456 137.733 58.4757 142.214 58.4757C143.656 58.4811 145.135 57.7764 145.985 56.593Z" fill="#F9F9F9"/>
<path d="M121.3 59.5892C115.415 59.5892 112.268 55.0008 112.268 50.8534C112.268 46.0067 116.227 41.8593 121.854 41.8593C127.292 41.8593 130.697 46.1143 130.697 50.5952C130.697 54.9631 127.33 59.5892 121.3 59.5892ZM125.926 56.593C126.814 55.4096 127.039 53.9249 127.039 52.4833C127.039 49.2235 125.485 43.0051 120.896 43.0051C119.675 43.0051 118.454 43.4892 117.567 44.2638C116.125 45.5602 115.861 47.1847 115.861 48.7824C115.861 52.4456 117.674 58.4757 122.155 58.4757C123.591 58.4811 125.076 57.7764 125.926 56.593Z" fill="#F9F9F9"/>
<path d="M109.439 59.0137L104.119 60.2401C101.961 60.5736 100.025 60.8695 97.9808 60.8695C87.7065 60.8695 83.8011 53.317 83.8011 47.3999C83.8011 40.181 89.3471 33.4838 98.8361 33.4838C100.848 33.4838 102.779 33.7797 104.527 34.2638C107.319 35.0438 108.621 36.012 109.439 36.5715L106.351 39.5086L105.049 39.8044L105.98 38.3144C104.716 37.0879 102.408 34.8179 98.0185 34.8179C92.139 34.8179 87.7119 39.2826 87.7119 45.7969C87.7119 52.7899 92.7737 59.3795 100.886 59.3795C103.269 59.3795 104.495 58.8953 105.614 58.4488V52.4564L99.998 52.7522L102.973 51.1492H110.864L109.896 52.0798C109.632 52.3058 109.6 52.3811 109.525 52.6769C109.487 53.0104 109.449 54.0917 109.449 54.4628V59.0137H109.439Z" fill="#F9F9F9"/>
<path d="M176.464 57.9377C175.237 57.8248 174.979 57.6042 174.979 56.1518V55.743V35.0921C174.985 35.0114 174.99 34.9308 175.001 34.8501C175.151 33.5483 175.522 33.3277 176.679 32.6553H171.354L168.562 33.9948H171.407V34.0109V33.9948V55.7376V56.9695C171.407 57.7118 171.262 57.8248 170.401 58.9383H176.991L178.368 58.1206C177.728 58.0507 177.093 58.013 176.464 57.9377Z" fill="#F9F9F9"/>
<path d="M191.601 58.2821C191.198 58.5027 190.789 58.7662 190.385 58.9491C189.164 59.5032 187.905 59.6538 186.797 59.6538C185.619 59.6538 183.769 59.5785 181.881 58.2122C179.261 56.3617 178.115 53.1826 178.115 50.4123C178.115 44.6834 182.774 41.8754 186.577 41.8754C187.905 41.8754 189.277 42.2089 190.385 42.9082C192.23 44.124 192.714 45.7162 192.967 46.5661L184.285 50.0788L181.44 50.2993C182.359 54.99 185.539 57.7227 189.051 57.7227C190.934 57.7227 192.306 57.061 193.559 56.4316L191.601 58.2821ZM188.131 47.2654C188.831 47.0072 189.202 46.7867 189.202 46.2703C189.202 44.791 187.54 43.0912 185.544 43.0912C184.065 43.0912 181.294 44.2369 181.294 48.2283C181.294 48.8577 181.37 49.5193 181.407 50.1863L188.131 47.2654Z" fill="#F9F9F9"/>
<path d="M195.173 42.1283V44.5651H194.877V42.1283H194.07V41.8754H195.98V42.1283H195.173Z" fill="#F9F9F9"/>
<path d="M198.497 44.5651V42.1014H198.481L197.728 44.5651H197.497L196.738 42.1014H196.727V44.5651H196.458V41.8755H196.921L197.604 44.0487H197.615L198.287 41.8755H198.755V44.5651H198.497Z" fill="#F9F9F9"/>
<path d="M91.1922 26.2379H89.3418C89.3418 25.9851 89.1643 25.2643 88.8146 24.0755H86.1465C85.7861 25.2428 85.6032 25.9636 85.6032 26.2379H83.8657C83.8657 26.0873 84.3176 24.8555 85.2159 22.537C86.1142 20.2239 86.5661 18.9491 86.5661 18.7124H88.7501C88.7501 18.9329 89.1589 20.1863 89.9712 22.4832C90.7834 24.7802 91.1922 26.0281 91.1922 26.2379ZM88.5188 22.9727C87.8625 20.9824 87.529 19.912 87.529 19.7506H87.4375C87.4375 19.9012 87.0986 20.977 86.4155 22.9727H88.5188Z" fill="#FCFCFD"/>
<path d="M98.6426 26.2379H97.217C97.217 26.0819 96.6899 25.2482 95.6302 23.7366C94.5221 22.1443 93.8873 21.0577 93.7367 20.4714H93.6452C93.7421 21.3159 93.7905 22.0798 93.7905 22.7576C93.7905 23.7097 93.8174 24.8662 93.8712 26.2379H92.451C92.5102 25.0437 92.5371 23.7312 92.5371 22.3003C92.5371 20.8963 92.5102 19.6968 92.451 18.7124H94.167C94.167 18.9168 94.6404 19.7291 95.5925 21.1546C96.6038 22.6661 97.1848 23.6936 97.3354 24.2369H97.4215C97.33 23.3762 97.2816 22.607 97.2816 21.9238C97.2816 20.8802 97.2547 19.8098 97.2009 18.7124H98.6479C98.5941 19.6699 98.5672 20.8641 98.5672 22.3003C98.5619 23.7527 98.5888 25.0599 98.6426 26.2379Z" fill="#FCFCFD"/>
<path d="M107.018 22.2142C107.018 23.3062 106.668 24.2637 105.964 25.0814C105.264 25.899 104.28 26.3078 103.016 26.3078C102.446 26.3078 101.66 26.2863 100.66 26.2379C100.708 25.076 100.735 23.7635 100.735 22.3003C100.735 20.8963 100.708 19.7021 100.66 18.7124H101.671C101.838 18.7124 102.085 18.707 102.413 18.6962C102.741 18.6855 102.957 18.6801 103.053 18.6801C104.441 18.6801 105.453 19.0244 106.077 19.7183C106.701 20.4122 107.018 21.246 107.018 22.2142ZM105.436 22.4617C105.436 21.7194 105.221 21.1007 104.791 20.5897C104.361 20.0841 103.699 19.8312 102.817 19.8312C102.65 19.8312 102.424 19.8474 102.134 19.885C102.171 20.6543 102.193 21.4611 102.193 22.3003C102.193 23.2201 102.214 24.1346 102.252 25.0383C102.505 25.0867 102.752 25.1136 103.005 25.1136C103.833 25.1136 104.447 24.8554 104.845 24.3444C105.237 23.828 105.436 23.204 105.436 22.4617Z" fill="#FCFCFD"/>
<path d="M114.737 26.2379H113.027C112.58 24.8716 112.236 24.0324 111.999 23.7151C111.762 23.3977 111.375 23.2363 110.843 23.2363C110.617 23.2363 110.407 23.2363 110.202 23.2417C110.202 24.2315 110.219 25.232 110.256 26.2433H108.648C108.696 25.0814 108.723 23.7688 108.723 22.3057C108.723 20.9017 108.696 19.7075 108.648 18.7177H109.648C109.761 18.7177 110.003 18.7124 110.375 18.7016C110.74 18.6908 111.085 18.6855 111.397 18.6855C113.166 18.6855 114.049 19.288 114.049 20.4983C114.049 21.4558 113.543 22.1282 112.537 22.5047V22.5908C112.924 22.6984 113.269 22.9996 113.559 23.4999C113.844 23.9948 114.242 24.9092 114.737 26.2379ZM112.569 20.9232C112.569 20.1594 112.074 19.7721 111.09 19.7721C110.73 19.7721 110.407 19.799 110.133 19.8528C110.176 20.4499 110.197 21.2298 110.197 22.1874C110.407 22.1927 110.59 22.1981 110.735 22.1981C111.961 22.1981 112.569 21.7731 112.569 20.9232Z" fill="#FCFCFD"/>
<path d="M123.021 22.3381C123.021 23.5215 122.661 24.5005 121.935 25.2805C121.208 26.0605 120.315 26.4478 119.245 26.4478C118.228 26.4478 117.378 26.0928 116.69 25.3773C116.007 24.6619 115.662 23.7528 115.662 22.6554C115.662 21.472 116.023 20.493 116.749 19.713C117.475 18.933 118.368 18.5457 119.439 18.5457C120.455 18.5457 121.305 18.9007 121.994 19.6162C122.677 20.3209 123.021 21.2299 123.021 22.3381ZM121.429 22.5048C121.429 21.6979 121.224 21.0471 120.81 20.5468C120.396 20.0465 119.89 19.7937 119.283 19.7937C118.718 19.7937 118.244 20.0465 117.852 20.5522C117.459 21.0578 117.26 21.6925 117.26 22.4672C117.26 23.2687 117.464 23.9196 117.879 24.4252C118.293 24.9255 118.798 25.1783 119.401 25.1783C119.966 25.1783 120.439 24.9255 120.832 24.4198C121.23 23.9088 121.429 23.2687 121.429 22.5048Z" fill="#FCFCFD"/>
<path d="M126.292 26.2379H124.656C124.705 25.0437 124.732 23.7312 124.732 22.3003C124.732 20.8963 124.705 19.6968 124.656 18.7124H126.292C126.243 19.6806 126.216 20.8802 126.216 22.3003C126.216 23.7527 126.238 25.0653 126.292 26.2379Z" fill="#FCFCFD"/>
<path d="M134.667 22.2142C134.667 23.3062 134.318 24.2637 133.613 25.0814C132.914 25.899 131.929 26.3078 130.665 26.3078C130.095 26.3078 129.309 26.2863 128.309 26.2379C128.357 25.076 128.384 23.7635 128.384 22.3003C128.384 20.8963 128.357 19.7021 128.309 18.7124H129.32C129.487 18.7124 129.734 18.707 130.063 18.6962C130.391 18.6855 130.606 18.6801 130.703 18.6801C132.091 18.6801 133.102 19.0244 133.726 19.7183C134.35 20.4122 134.667 21.246 134.667 22.2142ZM133.086 22.4617C133.086 21.7194 132.871 21.1007 132.44 20.5897C132.01 20.0841 131.348 19.8312 130.466 19.8312C130.299 19.8312 130.073 19.8474 129.783 19.885C129.821 20.6543 129.842 21.4611 129.842 22.3003C129.842 23.2201 129.864 24.1346 129.901 25.0383C130.154 25.0867 130.401 25.1136 130.654 25.1136C131.483 25.1136 132.096 24.8554 132.494 24.3444C132.887 23.828 133.086 23.204 133.086 22.4617Z" fill="#FCFCFD"/>
<path d="M145.775 26.2379H143.925C143.925 25.9851 143.747 25.2643 143.398 24.0755H140.73C140.369 25.2428 140.186 25.9636 140.186 26.2379H138.449C138.449 26.0873 138.901 24.8555 139.799 22.537C140.697 20.2239 141.149 18.9491 141.149 18.7124H143.333C143.333 18.9329 143.742 20.1863 144.554 22.4832C145.367 24.7802 145.775 26.0281 145.775 26.2379ZM143.107 22.9727C142.451 20.9824 142.117 19.912 142.117 19.7506H142.026C142.026 19.9012 141.687 20.977 141.004 22.9727H143.107Z" fill="#FCFCFD"/>
<path d="M152.516 20.6865C152.516 21.6064 152.171 22.2895 151.488 22.7253C150.805 23.1664 149.966 23.3815 148.971 23.3815C148.788 23.3815 148.659 23.3762 148.583 23.3708C148.583 24.097 148.605 25.0491 148.648 26.2379H147.023C147.072 25.1244 147.099 23.8119 147.099 22.3003C147.099 20.9125 147.072 19.7183 147.023 18.7124H148.029C148.169 18.7124 148.443 18.707 148.852 18.6962C149.256 18.6855 149.605 18.6801 149.907 18.6801C150.638 18.6801 151.257 18.8468 151.762 19.175C152.263 19.5085 152.516 20.0087 152.516 20.6865ZM151.025 21.0039C151.025 20.1809 150.477 19.7667 149.385 19.7667C149.11 19.7667 148.82 19.7936 148.519 19.8528C148.562 20.579 148.583 21.4074 148.583 22.3272C148.68 22.3326 148.793 22.338 148.917 22.338C150.321 22.338 151.025 21.8915 151.025 21.0039Z" fill="#FCFCFD"/>
<path d="M159.449 20.6865C159.449 21.6064 159.105 22.2895 158.422 22.7253C157.739 23.1664 156.9 23.3815 155.904 23.3815C155.722 23.3815 155.592 23.3762 155.517 23.3708C155.517 24.097 155.539 25.0491 155.582 26.2379H153.957C154.006 25.1244 154.032 23.8119 154.032 22.3003C154.032 20.9125 154.006 19.7183 153.957 18.7124H154.963C155.103 18.7124 155.377 18.707 155.786 18.6962C156.19 18.6855 156.539 18.6801 156.84 18.6801C157.572 18.6801 158.191 18.8468 158.696 19.175C159.202 19.5031 159.449 20.0087 159.449 20.6865ZM157.954 21.0039C157.954 20.1809 157.405 19.7667 156.313 19.7667C156.039 19.7667 155.748 19.7936 155.447 19.8528C155.49 20.579 155.512 21.4074 155.512 22.3272C155.609 22.3326 155.722 22.338 155.845 22.338C157.255 22.338 157.954 21.8915 157.954 21.0039Z" fill="#FCFCFD"/>
<path d="M170.778 22.3381C170.778 23.5215 170.418 24.5005 169.691 25.2805C168.965 26.0605 168.072 26.4478 167.002 26.4478C165.985 26.4478 165.135 26.0928 164.447 25.3773C163.763 24.6619 163.419 23.7528 163.419 22.6554C163.419 21.472 163.78 20.493 164.506 19.713C165.232 18.933 166.125 18.5457 167.195 18.5457C168.212 18.5457 169.062 18.9007 169.751 19.6162C170.434 20.3209 170.778 21.2299 170.778 22.3381ZM169.18 22.5048C169.18 21.6979 168.976 21.0471 168.562 20.5468C168.148 20.0465 167.642 19.7937 167.034 19.7937C166.469 19.7937 165.996 20.0465 165.603 20.5522C165.21 21.0578 165.011 21.6925 165.011 22.4672C165.011 23.2687 165.216 23.9196 165.635 24.4252C166.05 24.9255 166.555 25.1783 167.158 25.1783C167.723 25.1783 168.196 24.9255 168.589 24.4198C168.987 23.9088 169.18 23.2687 169.18 22.5048Z" fill="#FCFCFD"/>
<path d="M178.61 26.2379H177.185C177.185 26.0819 176.658 25.2482 175.598 23.7366C174.49 22.1443 173.855 21.0577 173.704 20.4714H173.613C173.71 21.3159 173.758 22.0798 173.758 22.7576C173.758 23.7097 173.785 24.8662 173.839 26.2379H172.419C172.478 25.0437 172.505 23.7312 172.505 22.3003C172.505 20.8963 172.478 19.6968 172.419 18.7124H174.135C174.135 18.9168 174.608 19.7291 175.56 21.1546C176.571 22.6661 177.152 23.6936 177.303 24.2369H177.389C177.298 23.3762 177.249 22.607 177.249 21.9238C177.249 20.8802 177.222 19.8098 177.169 18.7124H178.616C178.562 19.6699 178.535 20.8641 178.535 22.3003C178.53 23.7527 178.556 25.0599 178.61 26.2379Z" fill="#FCFCFD"/>
<defs>
<linearGradient id="paint0_linear" x1="36.3094" y1="17.7362" x2="36.3094" y2="78.6844" gradientUnits="userSpaceOnUse">
<stop stop-color="#2079B0"/>
<stop offset="0.2863" stop-color="#4A93B8"/>
<stop offset="0.767" stop-color="#83BEBF"/>
<stop offset="1" stop-color="#97CFBF"/>
</linearGradient>
<linearGradient id="paint1_linear" x1="20.9426" y1="32.8626" x2="59.9311" y2="32.8626" gradientUnits="userSpaceOnUse">
<stop stop-color="#5ABCAB"/>
<stop offset="1" stop-color="#E6E99A"/>
</linearGradient>
<linearGradient id="paint2_linear" x1="40.4365" y1="48.2108" x2="40.4365" y2="78.9061" gradientUnits="userSpaceOnUse">
<stop stop-color="#E53432"/>
<stop offset="0.1668" stop-color="#D73948"/>
<stop offset="0.5748" stop-color="#B33F72"/>
<stop offset="0.8619" stop-color="#9A4189"/>
<stop offset="1" stop-color="#904192"/>
</linearGradient>
<linearGradient id="paint3_linear" x1="62.8923" y1="40.0252" x2="62.8923" y2="56.3951" gradientUnits="userSpaceOnUse">
<stop stop-color="#F18779"/>
<stop offset="0.1194" stop-color="#F2917A"/>
<stop offset="0.7128" stop-color="#FABC77"/>
<stop offset="1" stop-color="#FDCB72"/>
</linearGradient>
</defs>
</svg>
