<svg width="209" height="183" viewBox="0 0 209 183" fill="none" xmlns="http://www.w3.org/2000/svg">
<path d="M84 3.5H182V26.5L162.5 41.75L166.75 64.5C166.75 64.5 161.75 74.75 164.25 89.5C166.75 104.25 166.75 122.5 166.75 122.5L164.25 144.5L182 175.5H84L90.75 129.25L84 85.25L97.75 57.5L84 32.25V3.5Z" fill="#475F6C"/>
<path d="M202.607 121.483C201.536 120.055 200.465 118.627 199.037 117.556L201.893 115.772C208.676 111.488 210.461 102.92 206.534 96.1374L202.607 90.0687C201.536 88.6408 200.465 87.2128 199.037 86.1419L201.893 84.357C208.676 80.0732 210.461 71.5055 206.534 64.7228L202.607 58.6541C201.893 57.2262 200.822 56.1552 199.394 55.0843L200.465 54.3703C205.106 51.5144 207.248 46.5167 207.248 41.1619C207.248 39.02 206.534 36.8781 205.106 34.7362L201.179 28.6675C198.323 24.0267 193.325 21.5278 187.971 21.8848C187.614 21.8848 187.257 21.8848 187.257 21.8848V14.0311C187.257 5.82051 180.831 0.108765 172.62 0.108765H92.299C88.3722 0.108765 83.7314 0.822732 81.2325 3.6786C78.3766 6.53447 75.8777 9.39034 75.8777 13.3172V37.5921C75.8777 38.306 72.3079 39.02 69.809 40.4479C61.2414 44.3748 54.8157 50.4435 50.1749 58.2971C47.319 62.5809 45.5341 67.2217 44.4632 72.5765C43.7492 71.8625 43.0352 71.5055 42.3213 71.5055H12.3346C6.26589 71.5055 0.911133 77.2173 0.911133 82.929V173.246C0.911133 178.958 6.26589 182.171 12.3346 182.171H42.3213C47.676 182.171 51.9598 178.244 52.6738 173.246C57.3146 174.317 61.2414 175.031 65.1682 175.031H65.5252C70.166 175.031 74.0928 175.031 77.6627 173.246C78.0197 172.889 78.7336 173.246 79.0906 172.889C80.5185 175.388 82.6604 178.244 85.5163 180.029C87.6582 181.1 89.8001 182.171 92.656 182.171H172.62C180.831 182.171 186.543 174.674 186.543 166.82V156.825L201.536 147.543C206.177 144.687 208.676 139.689 208.319 134.335C208.319 132.193 207.605 130.051 206.177 127.909L202.607 121.483ZM11.6206 82.929C11.6206 82.215 11.6206 82.215 12.3346 82.215H42.3213C43.0352 82.215 43.7492 82.215 43.7492 82.929V173.246C43.7492 173.96 43.0352 175.031 42.3213 175.031H12.3346C11.6206 175.031 11.6206 173.96 11.6206 173.246V82.929ZM54.4587 85.7849V83.643C54.4587 68.2927 61.9554 55.4413 75.5208 49.0156L76.5917 48.3016C79.0906 47.2306 81.2325 46.5167 83.3744 46.1597C87.6582 45.4457 90.8711 46.5167 93.013 49.0156C95.1549 52.2284 95.1549 56.5122 94.0839 58.2971C92.656 61.51 91.942 62.9379 86.5873 67.2217C78.7336 73.2905 75.1638 81.8581 76.9487 90.7827C78.0196 97.2084 81.2325 101.849 81.5895 102.206C89.4431 113.273 91.2281 126.124 87.3012 141.117C84.0884 152.541 78.7336 160.751 78.7336 161.108L78.3766 161.822C78.0197 162.179 77.6627 163.964 74.8068 165.392C71.237 167.177 65.5252 168.248 54.8157 165.035V85.7849H54.4587ZM92.299 7.24844H172.263C174.405 7.24844 176.19 10.8183 177.261 10.8183H87.3012C88.3722 10.8183 90.1571 7.24844 92.299 7.24844ZM179.403 21.5278V26.5256L162.982 36.1641C158.341 39.02 155.485 44.0178 155.842 49.3725C155.842 51.5144 156.556 53.6563 157.984 55.7982L161.554 61.867C162.268 63.2949 163.339 64.3659 164.767 65.4368L163.696 66.1508C159.055 69.0066 156.556 74.0044 156.913 79.3592C156.913 81.5011 157.627 83.643 159.055 85.7849L162.982 91.8536C164.053 93.2816 165.124 94.7095 166.552 95.7804L163.696 97.5654C159.055 100.421 156.913 105.419 156.913 110.774C156.913 112.916 157.627 115.058 159.055 117.199L162.982 123.268C164.053 124.696 165.124 126.124 166.552 127.195L163.696 128.98C159.055 131.836 156.913 136.834 156.913 142.188C156.913 144.33 157.627 146.472 159.055 148.614L162.982 155.397C164.053 156.825 165.124 156.468 166.552 160.038H90.5141C92.299 152.898 94.7979 150.042 96.2258 143.973C98.3677 136.12 99.0817 128.266 98.3677 121.126C98.0107 115.772 96.2258 110.417 93.37 104.705L89.4431 96.4944L89.0862 95.7804C89.0862 95.7804 86.5873 92.5676 85.8733 88.2838C84.8023 82.572 86.9442 77.9312 91.942 74.0044C98.3677 69.0067 100.153 66.1508 102.295 61.867C104.793 57.2262 104.793 49.0156 100.51 42.5898C98.7247 39.734 95.8688 37.9491 92.656 36.8781C90.8711 36.1641 90.1571 35.8072 86.5873 35.8072V21.5278H179.403ZM192.968 33.6652L196.895 39.734C197.609 40.8049 197.609 42.2329 197.609 43.3038C197.252 44.3748 196.538 45.4457 195.467 46.1597L184.044 53.2994C183.687 53.6563 183.33 53.6563 182.973 54.0133L175.833 58.6541C174.762 59.0111 173.691 59.3681 172.62 59.0111C171.549 58.6541 170.478 57.9401 169.765 56.8692L165.838 50.8005C165.124 49.7295 165.124 48.3016 165.124 47.2306C165.481 46.1597 166.195 45.0887 167.266 44.3748L186.543 32.2373C187.614 31.5233 188.685 31.5233 190.113 31.5233C191.541 31.8803 192.254 32.5943 192.968 33.6652ZM190.47 61.51C190.827 61.51 191.184 61.51 191.541 61.51C192.611 61.867 193.682 62.5809 194.396 63.6519L198.323 69.7206C199.751 71.8625 199.037 74.7184 196.895 76.1463L177.261 88.2838C176.19 88.9977 175.119 88.9977 173.691 88.9977C172.62 88.6408 171.549 87.9268 170.835 86.8558L166.909 80.7871C166.195 79.7162 166.195 78.2882 166.195 77.2173C166.552 76.1463 167.266 75.0754 168.337 74.3614L179.76 67.2217C180.117 66.8647 180.474 66.8647 180.831 66.5078L188.328 61.867C189.042 61.51 189.756 61.51 190.47 61.51ZM177.261 120.055C176.19 120.769 175.119 120.769 173.691 120.769C172.62 120.412 171.549 119.698 170.835 118.627L166.909 112.559C166.195 111.488 166.195 110.06 166.195 108.989C166.552 107.918 167.266 106.847 168.337 106.133L187.971 93.9955C189.042 93.2815 190.113 93.2815 191.541 93.2815C192.611 93.6385 193.682 94.3525 194.396 95.4235L198.323 101.492C199.751 103.634 199.037 106.49 196.895 107.918L177.261 120.055ZM177.261 167.891C176.547 171.461 174.762 171.461 172.263 171.461H92.299C90.1571 171.461 88.3722 171.461 87.3012 167.891H177.261ZM177.261 151.47C176.19 152.184 175.119 152.184 173.691 152.184C172.62 151.827 171.549 151.113 170.835 150.042L166.909 143.973C166.195 142.902 166.195 141.474 166.195 140.403C166.552 139.332 167.266 138.262 168.337 137.548L187.971 125.41C188.685 125.053 189.756 124.696 190.47 124.696C190.827 124.696 191.184 124.696 191.541 124.696C192.611 125.053 193.682 125.767 194.396 126.838L198.323 132.907C199.037 133.978 199.037 135.406 199.037 136.477C198.68 137.548 197.966 138.618 196.895 139.332L177.261 151.47Z" fill="#44F1A6"/>
<path d="M26.9707 168.605C27.6847 168.605 28.3986 168.605 29.1126 168.248C32.3254 167.534 34.8243 164.678 35.8953 161.465C36.6093 158.252 35.8953 155.04 33.3964 152.541C31.2545 150.399 27.6847 149.328 24.4718 150.042C21.6159 151.113 18.7601 153.612 18.0461 157.181C17.3321 160.394 18.0461 163.607 20.545 166.106C22.3299 167.534 24.4718 168.605 26.9707 168.605ZM23.7578 159.323C23.7578 157.538 25.1858 156.111 26.9707 156.111C28.7556 156.111 30.1835 157.538 30.1835 159.323C30.1835 161.108 28.7556 162.536 26.9707 162.536C25.1858 162.536 23.7578 161.108 23.7578 159.323Z" fill="#44F1A6"/>
</svg>
