<svg width="158" height="39" viewBox="0 0 158 39" fill="none" xmlns="http://www.w3.org/2000/svg">
<path d="M5.32217 22.1131V30.5165H2.49154V9.05089H10.4085C12.7575 9.05089 14.5954 9.65043 15.9223 10.8495C17.259 12.0486 17.9273 13.6359 17.9273 15.6115C17.9273 17.6951 17.2737 19.3021 15.9665 20.4324C14.6691 21.5528 12.8066 22.1131 10.379 22.1131H5.32217ZM5.32217 19.7984H10.4085C11.9221 19.7984 13.0818 19.4446 13.8878 18.7369C14.6937 18.0195 15.0967 16.9875 15.0967 15.6409C15.0967 14.3632 14.6937 13.3411 13.8878 12.5744C13.0818 11.8078 11.9761 11.4097 10.5706 11.3803H5.32217V19.7984ZM30.7831 30.5165C30.6258 30.202 30.498 29.6417 30.3998 28.8358C29.1319 30.1528 27.6183 30.8113 25.859 30.8113C24.2864 30.8113 22.9939 30.3691 21.9816 29.4845C20.9791 28.5901 20.4778 27.4598 20.4778 26.0936C20.4778 24.4326 21.1068 23.1451 22.3649 22.231C23.6328 21.3071 25.4118 20.8452 27.7018 20.8452H30.3555V19.592C30.3555 18.6387 30.0705 17.8819 29.5004 17.3216C28.9304 16.7516 28.09 16.4665 26.9794 16.4665C26.0064 16.4665 25.1906 16.7123 24.5321 17.2037C23.8736 17.6951 23.5443 18.2897 23.5443 18.9876H20.8022C20.8022 18.1915 21.0823 17.4248 21.6425 16.6877C22.2126 15.9407 22.9792 15.351 23.9424 14.9185C24.9154 14.4861 25.9818 14.2699 27.1416 14.2699C28.9795 14.2699 30.4194 14.7318 31.4612 15.6557C32.5031 16.5697 33.0436 17.8327 33.083 19.4446V26.7865C33.083 28.251 33.2697 29.4157 33.6432 30.2806V30.5165H30.7831ZM26.257 28.4377C27.1121 28.4377 27.923 28.2166 28.6896 27.7743C29.4562 27.332 30.0115 26.7571 30.3555 26.0494V22.7765H28.2178C24.8761 22.7765 23.2052 23.7544 23.2052 25.7103C23.2052 26.5654 23.4903 27.2337 24.0603 27.7153C24.6304 28.1969 25.3626 28.4377 26.257 28.4377ZM45.0689 17.012C44.6561 16.9432 44.2089 16.9088 43.7273 16.9088C41.9385 16.9088 40.7247 17.6705 40.0858 19.194V30.5165H37.3584V14.5647H40.0121L40.0563 16.4076C40.9507 14.9824 42.2186 14.2699 43.86 14.2699C44.3907 14.2699 44.7937 14.3387 45.0689 14.4763V17.012ZM52.0423 23.1303L50.3321 24.9142V30.5165H47.6047V7.87146H50.3321V21.5676L51.7916 19.8132L56.76 14.5647H60.0771L53.8704 21.2285L60.7995 30.5165H57.6003L52.0423 23.1303Z" fill="#F9F9F9"/>
<path fill-rule="evenodd" clip-rule="evenodd" d="M157.257 19.5002C157.257 8.73076 148.527 0.000366211 137.757 0.000366211H84.9188C74.1493 0.000366211 65.4189 8.73076 65.4189 19.5002C65.4189 30.2697 74.1493 39.0001 84.9188 39.0001H137.757C148.527 39.0001 157.257 30.2697 157.257 19.5002Z" fill="#44F1A6"/>
<path d="M89.4547 20.4766C89.4547 22.5799 89.1009 24.4179 88.3932 25.9904C87.6856 27.5532 86.6831 28.7473 85.3857 29.5729C84.0883 30.3985 82.5747 30.8113 80.8449 30.8113C79.1544 30.8113 77.6555 30.3985 76.3483 29.5729C75.0411 28.7375 74.0239 27.5532 73.2965 26.0199C72.5791 24.4768 72.2105 22.6929 72.1908 20.6683V19.1203C72.1908 17.0563 72.5496 15.2331 73.2671 13.6507C73.9845 12.0683 74.9969 10.8593 76.3041 10.0239C77.6211 9.17866 79.1249 8.75603 80.8154 8.75603C82.5354 8.75603 84.049 9.17375 85.3562 10.0092C86.6732 10.8348 87.6856 12.0388 88.3932 13.6212C89.1009 15.1937 89.4547 17.0268 89.4547 19.1203V20.4766ZM86.6388 19.0908C86.6388 16.5452 86.1277 14.5942 85.1056 13.2379C84.0834 11.8717 82.6533 11.1886 80.8154 11.1886C79.0266 11.1886 77.6162 11.8717 76.5842 13.2379C75.562 14.5942 75.0362 16.4813 75.0067 18.8991V20.4766C75.0067 22.9436 75.5227 24.8847 76.5547 26.3C77.5965 27.7055 79.0266 28.4083 80.8449 28.4083C82.673 28.4083 84.0883 27.7448 85.0908 26.418C86.0933 25.0813 86.6093 23.1696 86.6388 20.683V19.0908ZM110.198 30.5165H107.353L96.546 13.975V30.5165H93.7006V9.05089H96.546L107.382 25.6661V9.05089H110.198V30.5165Z" fill="white"/>
<circle cx="137.757" cy="19.5002" r="15.7257" fill="white"/>
</svg>
