<svg width="210" height="201" viewBox="0 0 210 201" fill="none" xmlns="http://www.w3.org/2000/svg">
<path d="M146.269 0.525146H18.5025C8.46371 0.525146 0.250122 8.73874 0.250122 18.7776V146.544C0.250122 156.583 8.46371 164.797 18.5025 164.797H146.269C156.308 164.797 164.522 156.583 164.522 146.544V18.7776C164.522 8.73874 156.308 0.525146 146.269 0.525146ZM62.3083 95.4377V128.292H45.8812V37.03H85.1239C98.8132 37.03 105.202 39.7678 110.677 45.2436C117.066 50.7193 118.89 58.0203 118.89 66.2339C118.89 75.3601 116.153 82.661 110.677 87.2241C105.201 91.7872 98.8132 94.5251 85.1239 94.5251H62.3083V95.4377Z" fill="#44F1A6"/>
<path d="M62.3083 82.6611V49.8067H83.2986C89.6873 49.8067 94.2504 51.6319 96.9879 55.2824C99.7258 58.9329 101.551 61.6708 101.551 66.2339C101.551 71.7096 99.7258 74.4475 96.9879 78.0979C94.2504 80.8358 90.5996 82.6611 84.2113 82.6611H62.3083Z" fill="#44F1A6"/>
<rect x="92.3751" y="139.25" width="77.875" height="32.25" fill="white"/>
<path d="M200.758 133.052L190.144 111.066C187.112 105.759 181.805 101.968 175.74 101.968H119.638C113.573 101.968 108.266 105.759 105.234 111.066L94.6199 133.052C90.0711 133.81 87.0386 137.6 87.0386 141.391V167.926C87.0386 172.474 90.0711 176.265 94.6199 177.023V192.186C94.6199 196.735 98.4105 200.525 102.959 200.525H109.782C113.573 200.525 117.364 196.735 117.364 192.186V177.781H178.014V192.186C178.014 196.735 181.805 200.525 186.354 200.525H193.177C197.726 200.525 201.516 196.735 201.516 192.186V177.023C206.065 176.265 209.098 172.474 209.098 167.926V141.391C208.339 137.6 205.307 133.81 200.758 133.052ZM117.364 150.489C117.364 152.763 115.089 155.037 112.815 155.037H99.1687C96.8943 155.037 94.6199 152.763 94.6199 150.489V144.424C94.6199 142.149 96.8943 139.875 99.1687 139.875H112.815C115.089 139.875 117.364 142.149 117.364 144.424V150.489ZM162.852 170.2H132.526V162.619H162.852V170.2ZM102.959 132.293L112.057 114.098C113.573 111.066 116.606 109.55 119.638 109.55H175.74C178.772 109.55 181.805 111.066 183.321 114.098L192.419 132.293H102.959ZM200.758 150.489C200.758 152.763 198.484 155.037 196.209 155.037H182.563C180.289 155.037 178.014 152.763 178.014 150.489V144.424C178.014 142.149 180.289 139.875 182.563 139.875H196.209C198.484 139.875 200.758 142.149 200.758 144.424V150.489Z" fill="#475F6C"/>
<path d="M84.1251 164.797C84.1251 155.518 84.2188 140.368 84.2188 140.368C84.2188 140.368 85.6108 136.507 87.3377 134.635C88.9147 132.925 92.2484 131.273 92.2484 131.273L103.492 109.446C103.492 109.446 106.246 104.749 108.724 102.815C111.203 100.881 115.953 99.2463 115.953 99.2463L164.522 99.0161" stroke="white" stroke-width="6"/>
</svg>
