<svg width="209" height="238" viewBox="0 0 209 238" fill="none" xmlns="http://www.w3.org/2000/svg">
<g filter="url(#filter0_d)">
<path d="M78.1487 152.4C50.9546 152.4 28.9167 130.358 28.9198 103.17C28.9198 75.9802 50.9608 53.9411 78.1507 53.9411C105.337 53.9411 127.38 75.9821 127.38 103.17C127.381 130.357 105.331 152.399 78.1487 152.4Z" fill="#44F1A6"/>
<path d="M182.631 229.925C176.921 229.926 171.218 227.754 166.873 223.409L123.239 179.776L130.388 172.624L120.599 162.836C91.6768 183.474 51.7437 180.336 26.3647 154.954C12.5308 141.122 4.91357 122.731 4.91357 103.168C4.91357 83.6079 12.5308 65.2168 26.3647 51.384C54.9136 22.8301 101.376 22.8329 129.933 51.3848C155.314 76.7668 158.451 116.701 137.814 145.62L147.605 155.41L154.751 148.26L198.387 191.895C202.598 196.103 204.914 201.7 204.914 207.654C204.914 213.605 202.596 219.201 198.387 223.41C194.042 227.752 188.335 229.925 182.631 229.925ZM134.116 179.776L172.31 217.969C177.998 223.657 187.257 223.657 192.948 217.969C195.703 215.212 197.22 211.549 197.22 207.651C197.22 203.754 195.702 200.089 192.948 197.333L154.754 159.141L147.606 166.289L127.604 146.289L129.713 143.607C150.178 117.573 147.933 80.2668 124.492 56.8227C98.9362 31.2696 57.3562 31.2688 31.803 56.8227C19.4229 69.2028 12.605 85.6618 12.605 103.168C12.605 120.675 19.4229 137.134 31.803 149.514C55.2429 172.955 92.5479 175.199 118.582 154.735L121.266 152.628L135.827 167.185L138.994 164.018L144.433 169.456L134.116 179.776Z" fill="#475F6C"/>
<path d="M182.631 216.091C181.325 216.091 178.815 215.769 176.664 213.62L166.896 203.851L172.336 198.413L182.102 208.181C182.154 208.234 182.32 208.399 182.629 208.399C182.935 208.399 183.101 208.234 183.156 208.179L188.594 213.617C186.444 215.768 183.935 216.091 182.631 216.091Z" fill="#475F6C"/>
<path d="M46.6097 103.171H38.9175C38.9187 92.7067 43.0026 82.8598 50.4194 75.4407C57.8366 68.0247 67.6835 63.9395 78.1464 63.9395L78.1476 71.6317C69.7386 71.6317 61.8237 74.9157 55.8585 80.8805C49.8956 86.8458 46.6097 94.7618 46.6097 103.171Z" fill="white"/>
<rect x="78.25" y="13.75" width="52.75" height="46.5" fill="white"/>
<path d="M104.914 23.6088C112.551 23.6088 118.75 29.7959 118.75 37.3735C118.75 44.9512 112.551 51.1383 104.914 51.1383C97.2773 51.1383 91.0786 44.9512 91.0786 37.3735C91.0786 29.7959 97.2773 23.6088 104.914 23.6088Z" fill="#44F1A6" stroke="#475F6C" stroke-width="5"/>
<path d="M109.532 93.0028L104.912 99.0465L100.321 93.0051L100.315 92.9971C98.8321 91.0622 91.5226 81.3903 84.5954 69.9461C81.1308 64.2225 77.7914 58.1037 75.3254 52.3201C72.8359 46.4819 71.3416 41.2229 71.3416 37.1464C71.3416 26.6064 74.7759 17.9922 80.5786 12.0262C86.3754 6.06629 94.7199 2.55847 104.914 2.55847C115.109 2.55847 123.453 6.0663 129.25 12.026C135.052 17.9918 138.486 26.6055 138.486 37.1446V37.1448C138.486 40.9256 137.217 45.715 135.039 51.0695C132.879 56.3801 129.908 62.0467 126.692 67.5213C120.265 78.4639 112.969 88.4532 109.537 92.9972C109.535 92.9991 109.534 93.0009 109.532 93.0028ZM104.914 12.1635C90.979 12.1635 79.6334 23.464 79.6334 37.3736C79.6334 51.2849 90.9791 62.5837 104.914 62.5837C118.85 62.5837 130.195 51.2832 130.195 37.3736C130.195 23.464 118.85 12.1635 104.914 12.1635Z" fill="white" stroke="#475F6C" stroke-width="5"/>
</g>
<defs>
<filter id="filter0_d" x="0.913574" y="0.0584717" width="208" height="237.867" filterUnits="userSpaceOnUse" color-interpolation-filters="sRGB">
<feFlood flood-opacity="0" result="BackgroundImageFix"/>
<feColorMatrix in="SourceAlpha" type="matrix" values="0 0 0 0 0 0 0 0 0 0 0 0 0 0 0 0 0 0 127 0"/>
<feOffset dy="4"/>
<feGaussianBlur stdDeviation="2"/>
<feColorMatrix type="matrix" values="0 0 0 0 0 0 0 0 0 0 0 0 0 0 0 0 0 0 0.25 0"/>
<feBlend mode="normal" in2="BackgroundImageFix" result="effect1_dropShadow"/>
<feBlend mode="normal" in="SourceGraphic" in2="effect1_dropShadow" result="shape"/>
</filter>
</defs>
</svg>
